<?xml version="1.0" encoding="UTF-8" standalone="no"?>
<!DOCTYPE svg PUBLIC "-//W3C//DTD SVG 1.1//EN"
 "http://www.w3.org/Graphics/SVG/1.1/DTD/svg11.dtd">
<!-- Generated by graphviz version 12.2.1 (0)
 -->
<!-- Pages: 1 -->
<svg width="956pt" height="158pt"
 viewBox="0.00 0.00 956.25 157.50" xmlns="http://www.w3.org/2000/svg" xmlns:xlink="http://www.w3.org/1999/xlink">
<g id="graph0" class="graph" transform="scale(1 1) rotate(0) translate(4 153.5)">
<polygon fill="white" stroke="none" points="-4,4 -4,-153.5 952.25,-153.5 952.25,4 -4,4"/>
<!-- s0 -->
<g id="node1" class="node">
<title>s0</title>
<polygon fill="none" stroke="black" points="119.5,-47 0,-47 0,0 119.5,0 119.5,-47"/>
<text text-anchor="middle" x="59.75" y="-29.7" font-family="Noto Sans" font-size="14.00">State 0</text>
<text text-anchor="middle" x="59.75" y="-10.2" font-family="Noto Sans" font-size="14.00">Output = 0, 0, 0</text>
</g>
<!-- s1 -->
<g id="node2" class="node">
<title>s1</title>
<polygon fill="none" stroke="black" points="365.75,-47 246.25,-47 246.25,0 365.75,0 365.75,-47"/>
<text text-anchor="middle" x="306" y="-29.7" font-family="Noto Sans" font-size="14.00">State 1</text>
<text text-anchor="middle" x="306" y="-10.2" font-family="Noto Sans" font-size="14.00">Output = 0, 1, 0</text>
</g>
<!-- s0&#45;&gt;s1 -->
<g id="edge1" class="edge">
<title>s0&#45;&gt;s1</title>
<path fill="none" stroke="black" d="M119.88,-23.5C154.4,-23.5 198.18,-23.5 234.49,-23.5"/>
<polygon fill="black" stroke="black" points="234.48,-27 244.48,-23.5 234.48,-20 234.48,-27"/>
<text text-anchor="middle" x="182.88" y="-49.2" font-family="Noto Sans" font-size="14.00">buf = 0</text>
<text text-anchor="middle" x="182.88" y="-29.7" font-family="Noto Sans" font-size="14.00">counter_0 = 7</text>
</g>
<!-- s1&#45;&gt;s1 -->
<g id="edge3" class="edge">
<title>s1&#45;&gt;s1</title>
<path fill="none" stroke="black" d="M283.05,-47.38C281.76,-56.96 289.41,-65 306,-65 315.59,-65 322.2,-62.31 325.81,-58.19"/>
<polygon fill="black" stroke="black" points="329.1,-59.41 328.52,-48.84 322.38,-57.47 329.1,-59.41"/>
<text text-anchor="middle" x="306" y="-110.2" font-family="Noto Sans" font-size="14.00">if !counter_0 == 0</text>
<text text-anchor="middle" x="306" y="-90.7" font-family="Noto Sans" font-size="14.00">buf &gt;&gt;= {data_in[0], buf[23:1]}</text>
<text text-anchor="middle" x="306" y="-71.2" font-family="Noto Sans" font-size="14.00">counter_0 &#45;= 1</text>
</g>
<!-- s2 -->
<g id="node3" class="node">
<title>s2</title>
<polygon fill="none" stroke="black" points="717,-112 597.5,-112 597.5,-65 717,-65 717,-112"/>
<text text-anchor="middle" x="657.25" y="-94.7" font-family="Noto Sans" font-size="14.00">State 2</text>
<text text-anchor="middle" x="657.25" y="-75.2" font-family="Noto Sans" font-size="14.00">Output = 0, 0, 1</text>
</g>
<!-- s1&#45;&gt;s2 -->
<g id="edge2" class="edge">
<title>s1&#45;&gt;s2</title>
<path fill="none" stroke="black" d="M366.25,-34.53C426.92,-45.82 521.24,-63.37 585.73,-75.37"/>
<polygon fill="black" stroke="black" points="585.05,-78.81 595.52,-77.2 586.33,-71.93 585.05,-78.81"/>
<text text-anchor="middle" x="481.62" y="-98.49" font-family="Noto Sans" font-size="14.00">if counter_0 == 0</text>
<text text-anchor="middle" x="481.62" y="-78.99" font-family="Noto Sans" font-size="14.00">buf &gt;&gt;= {data_in[0], buf[23:1]}</text>
</g>
<!-- s2&#45;&gt;s2 -->
<g id="edge5" class="edge">
<title>s2&#45;&gt;s2</title>
<path fill="none" stroke="black" d="M638.85,-112.38C637.81,-121.96 643.94,-130 657.25,-130 664.74,-130 669.95,-127.46 672.9,-123.53"/>
<polygon fill="black" stroke="black" points="676.29,-124.4 675.29,-113.85 669.49,-122.72 676.29,-124.4"/>
<text text-anchor="middle" x="657.25" y="-136.2" font-family="Noto Sans" font-size="14.00">if !in[1]</text>
</g>
<!-- s3 -->
<g id="node4" class="node">
<title>s3</title>
<polygon fill="none" stroke="black" points="948.25,-47 795,-47 795,0 948.25,0 948.25,-47"/>
<text text-anchor="middle" x="871.62" y="-29.7" font-family="Noto Sans" font-size="14.00">State 3</text>
<text text-anchor="middle" x="871.62" y="-10.2" font-family="Noto Sans" font-size="14.00">Output = BufferHigh</text>
</g>
<!-- s2&#45;&gt;s3 -->
<g id="edge4" class="edge">
<title>s2&#45;&gt;s3</title>
<path fill="none" stroke="black" d="M717.41,-70.39C737.98,-64.1 761.49,-56.9 783.83,-50.07"/>
<polygon fill="black" stroke="black" points="784.69,-53.46 793.23,-47.19 782.64,-46.77 784.69,-53.46"/>
<text text-anchor="middle" x="756" y="-69.93" font-family="Noto Sans" font-size="14.00">if in[1]</text>
</g>
<!-- s3&#45;&gt;s1 -->
<g id="edge6" class="edge">
<title>s3&#45;&gt;s1</title>
<path fill="none" stroke="black" d="M794.85,-19.95C770.04,-18.95 742.35,-17.99 717,-17.5 597.82,-15.17 459.14,-18.46 377.46,-21.01"/>
<polygon fill="black" stroke="black" points="377.47,-17.51 367.59,-21.32 377.69,-24.5 377.47,-17.51"/>
<text text-anchor="middle" x="657.25" y="-43.2" font-family="Noto Sans" font-size="14.00">buf = 0</text>
<text text-anchor="middle" x="657.25" y="-23.7" font-family="Noto Sans" font-size="14.00">counter_0 = 7</text>
</g>
</g>
</svg>
