<?xml version="1.0" encoding="UTF-8" standalone="no"?>
<!DOCTYPE svg PUBLIC "-//W3C//DTD SVG 1.1//EN"
 "http://www.w3.org/Graphics/SVG/1.1/DTD/svg11.dtd">
<!-- Generated by graphviz version 12.2.1 (0)
 -->
<!-- Pages: 1 -->
<svg width="760pt" height="289pt"
 viewBox="0.00 0.00 759.50 288.93" xmlns="http://www.w3.org/2000/svg" xmlns:xlink="http://www.w3.org/1999/xlink">
<g id="graph0" class="graph" transform="scale(1 1) rotate(0) translate(4 284.93)">
<polygon fill="white" stroke="none" points="-4,4 -4,-284.93 755.5,-284.93 755.5,4 -4,4"/>
<!-- s0 -->
<g id="node1" class="node">
<title>s0</title>
<polygon fill="none" stroke="black" points="113.5,-130.2 0,-130.2 0,-63.7 113.5,-63.7 113.5,-130.2"/>
<text text-anchor="middle" x="56.75" y="-112.9" font-family="Noto Sans" font-size="14.00">State 0</text>
<text text-anchor="middle" x="56.75" y="-93.4" font-family="Noto Sans" font-size="14.00">Is New Cycle?</text>
<text text-anchor="middle" x="56.75" y="-73.9" font-family="Noto Sans" font-size="14.00">Output = Keep</text>
</g>
<!-- s1 -->
<g id="node2" class="node">
<title>s1</title>
<polygon fill="none" stroke="black" points="505.25,-139.95 358,-139.95 358,-53.95 505.25,-53.95 505.25,-139.95"/>
<text text-anchor="middle" x="431.62" y="-122.65" font-family="Noto Sans" font-size="14.00">State 1</text>
<text text-anchor="middle" x="431.62" y="-103.15" font-family="Noto Sans" font-size="14.00">Wait</text>
<text text-anchor="middle" x="431.62" y="-83.65" font-family="Noto Sans" font-size="14.00">Output = Keep</text>
<text text-anchor="middle" x="431.62" y="-64.15" font-family="Noto Sans" font-size="14.00">(Wait for counter_1)</text>
</g>
<!-- s0&#45;&gt;s1 -->
<g id="edge1" class="edge">
<title>s0&#45;&gt;s1</title>
<path fill="none" stroke="black" d="M113.98,-96.95C175.68,-96.95 275.38,-96.95 346.42,-96.95"/>
<polygon fill="black" stroke="black" points="346.05,-100.45 356.05,-96.95 346.05,-93.45 346.05,-100.45"/>
<text text-anchor="middle" x="235.75" y="-142.15" font-family="Noto Sans" font-size="14.00">if counter_0 == 0</text>
<text text-anchor="middle" x="235.75" y="-122.65" font-family="Noto Sans" font-size="14.00">buf = {buf[15:0], data_in}</text>
<text text-anchor="middle" x="235.75" y="-103.15" font-family="Noto Sans" font-size="14.00">counter_0 = 2</text>
</g>
<!-- s0&#45;&gt;s1 -->
<g id="edge2" class="edge">
<title>s0&#45;&gt;s1</title>
<path fill="none" stroke="black" d="M107.38,-63.39C115.16,-59.5 123.34,-56.15 131.5,-53.95 220.96,-29.77 249.6,-33.59 340,-53.95 342.29,-54.46 344.59,-55.04 346.89,-55.68"/>
<polygon fill="black" stroke="black" points="345.62,-58.95 356.21,-58.59 347.71,-52.27 345.62,-58.95"/>
<text text-anchor="middle" x="235.75" y="-79.65" font-family="Noto Sans" font-size="14.00">if !(counter_0 == 0) &amp; buf == 0</text>
<text text-anchor="middle" x="235.75" y="-60.15" font-family="Noto Sans" font-size="14.00">counter_0 &#45;= 1</text>
</g>
<!-- s0&#45;&gt;s1 -->
<g id="edge3" class="edge">
<title>s0&#45;&gt;s1</title>
<path fill="none" stroke="black" d="M89.21,-130.47C101.29,-141.05 115.95,-151.42 131.5,-156.95 218.82,-187.98 251.27,-183.66 340,-156.95 348.96,-154.25 357.85,-150.34 366.36,-145.8"/>
<polygon fill="black" stroke="black" points="367.89,-148.96 374.84,-140.96 364.42,-142.88 367.89,-148.96"/>
<text text-anchor="middle" x="235.75" y="-223.83" font-family="Noto Sans" font-size="14.00">if !(counter_0 == 0) &amp; !(buf == 0)</text>
<text text-anchor="middle" x="235.75" y="-204.33" font-family="Noto Sans" font-size="14.00">buf &#45;= 1</text>
<text text-anchor="middle" x="235.75" y="-184.83" font-family="Noto Sans" font-size="14.00">counter_0 &#45;= 1</text>
</g>
<!-- s2 -->
<g id="node3" class="node">
<title>s2</title>
<polygon fill="none" stroke="black" points="751.5,-182.2 632,-182.2 632,-115.7 751.5,-115.7 751.5,-182.2"/>
<text text-anchor="middle" x="691.75" y="-164.9" font-family="Noto Sans" font-size="14.00">State 2</text>
<text text-anchor="middle" x="691.75" y="-145.4" font-family="Noto Sans" font-size="14.00">Set High</text>
<text text-anchor="middle" x="691.75" y="-125.9" font-family="Noto Sans" font-size="14.00">Output = 1, 0, 0</text>
</g>
<!-- s1&#45;&gt;s2 -->
<g id="edge5" class="edge">
<title>s1&#45;&gt;s2</title>
<path fill="none" stroke="black" d="M505.72,-116.01C511.63,-117.4 517.53,-118.73 523.25,-119.95 554.99,-126.71 590.36,-133.01 620.39,-138"/>
<polygon fill="black" stroke="black" points="619.69,-141.44 630.13,-139.61 620.83,-134.53 619.69,-141.44"/>
<text text-anchor="middle" x="568.62" y="-161.93" font-family="Noto Sans" font-size="14.00">if !(buf == 0)</text>
<text text-anchor="middle" x="568.62" y="-142.43" font-family="Noto Sans" font-size="14.00">counter_1 = 3</text>
</g>
<!-- s3 -->
<g id="node4" class="node">
<title>s3</title>
<polygon fill="none" stroke="black" points="751.5,-92.2 632,-92.2 632,-25.7 751.5,-25.7 751.5,-92.2"/>
<text text-anchor="middle" x="691.75" y="-74.9" font-family="Noto Sans" font-size="14.00">State 3</text>
<text text-anchor="middle" x="691.75" y="-55.4" font-family="Noto Sans" font-size="14.00">Set Low</text>
<text text-anchor="middle" x="691.75" y="-35.9" font-family="Noto Sans" font-size="14.00">Output = 0, 0, 0</text>
</g>
<!-- s1&#45;&gt;s3 -->
<g id="edge4" class="edge">
<title>s1&#45;&gt;s3</title>
<path fill="none" stroke="black" d="M505.29,-83.83C511.36,-82.82 517.41,-81.84 523.25,-80.95 555.12,-76.04 590.52,-71.29 620.53,-67.47"/>
<polygon fill="black" stroke="black" points="620.76,-70.97 630.24,-66.24 619.88,-64.02 620.76,-70.97"/>
<text text-anchor="middle" x="568.62" y="-106.65" font-family="Noto Sans" font-size="14.00">if buf == 0</text>
<text text-anchor="middle" x="568.62" y="-87.15" font-family="Noto Sans" font-size="14.00">counter_1 = 3</text>
</g>
<!-- s2&#45;&gt;s0 -->
<g id="edge6" class="edge">
<title>s2&#45;&gt;s0</title>
<path fill="none" stroke="black" d="M631.52,-182.49C523.72,-238.62 291.82,-336.34 131.5,-238.95 96.84,-217.89 77.72,-174.67 67.7,-141.41"/>
<polygon fill="black" stroke="black" points="71.13,-140.69 65.05,-132.01 64.4,-142.59 71.13,-140.69"/>
</g>
<!-- s3&#45;&gt;s0 -->
<g id="edge7" class="edge">
<title>s3&#45;&gt;s0</title>
<path fill="none" stroke="black" d="M631.66,-41.44C527,-13.6 303.82,31.4 131.5,-32.95 118.22,-37.91 105.74,-46.46 94.96,-55.72"/>
<polygon fill="black" stroke="black" points="92.85,-52.91 87.82,-62.23 97.57,-58.08 92.85,-52.91"/>
</g>
</g>
</svg>
