<?xml version="1.0" encoding="UTF-8" standalone="no"?>
<!DOCTYPE svg PUBLIC "-//W3C//DTD SVG 1.1//EN"
 "http://www.w3.org/Graphics/SVG/1.1/DTD/svg11.dtd">
<!-- Generated by graphviz version 12.2.1 (0)
 -->
<!-- Pages: 1 -->
<svg width="742pt" height="284pt"
 viewBox="0.00 0.00 741.50 283.71" xmlns="http://www.w3.org/2000/svg" xmlns:xlink="http://www.w3.org/1999/xlink">
<g id="graph0" class="graph" transform="scale(1 1) rotate(0) translate(4 279.71)">
<polygon fill="white" stroke="none" points="-4,4 -4,-279.71 737.5,-279.71 737.5,4 -4,4"/>
<!-- s0 -->
<g id="node1" class="node">
<title>s0</title>
<polygon fill="none" stroke="black" points="113.5,-126.64 0,-126.64 0,-60.14 113.5,-60.14 113.5,-126.64"/>
<text text-anchor="middle" x="56.75" y="-109.34" font-family="Noto Sans" font-size="14.00">State 0</text>
<text text-anchor="middle" x="56.75" y="-89.84" font-family="Noto Sans" font-size="14.00">Is New Cycle?</text>
<text text-anchor="middle" x="56.75" y="-70.34" font-family="Noto Sans" font-size="14.00">Output = Keep</text>
</g>
<!-- s1 -->
<g id="node2" class="node">
<title>s1</title>
<polygon fill="none" stroke="black" points="487.25,-136.39 340,-136.39 340,-50.39 487.25,-50.39 487.25,-136.39"/>
<text text-anchor="middle" x="413.62" y="-119.09" font-family="Noto Sans" font-size="14.00">State 1</text>
<text text-anchor="middle" x="413.62" y="-99.59" font-family="Noto Sans" font-size="14.00">Wait</text>
<text text-anchor="middle" x="413.62" y="-80.09" font-family="Noto Sans" font-size="14.00">Output = Keep</text>
<text text-anchor="middle" x="413.62" y="-60.59" font-family="Noto Sans" font-size="14.00">(Wait for counter_1)</text>
</g>
<!-- s0&#45;&gt;s1 -->
<g id="edge1" class="edge">
<title>s0&#45;&gt;s1</title>
<path fill="none" stroke="black" d="M113.98,-93.39C171.72,-93.39 262.25,-93.39 328.51,-93.39"/>
<polygon fill="black" stroke="black" points="328.24,-96.89 338.24,-93.39 328.24,-89.89 328.24,-96.89"/>
<text text-anchor="middle" x="226.75" y="-138.59" font-family="Noto Sans" font-size="14.00">if counter_0 == 0</text>
<text text-anchor="middle" x="226.75" y="-119.09" font-family="Noto Sans" font-size="14.00">buf = data_in</text>
<text text-anchor="middle" x="226.75" y="-99.59" font-family="Noto Sans" font-size="14.00">counter_0 = 2</text>
</g>
<!-- s0&#45;&gt;s1 -->
<g id="edge2" class="edge">
<title>s0&#45;&gt;s1</title>
<path fill="none" stroke="black" d="M107.38,-59.83C115.16,-55.94 123.34,-52.59 131.5,-50.39 213.23,-28.3 239.4,-31.78 322,-50.39 324.29,-50.9 326.59,-51.48 328.89,-52.12"/>
<polygon fill="black" stroke="black" points="327.62,-55.39 338.21,-55.03 329.71,-48.71 327.62,-55.39"/>
<text text-anchor="middle" x="226.75" y="-76.09" font-family="Noto Sans" font-size="14.00">if !counter_0 == 0 &amp; buf == 0</text>
<text text-anchor="middle" x="226.75" y="-56.59" font-family="Noto Sans" font-size="14.00">counter_0 &#45;= 1</text>
</g>
<!-- s0&#45;&gt;s1 -->
<g id="edge3" class="edge">
<title>s0&#45;&gt;s1</title>
<path fill="none" stroke="black" d="M89.21,-126.92C101.29,-137.49 115.95,-147.86 131.5,-153.39 211.28,-181.74 240.93,-177.79 322,-153.39 330.96,-150.69 339.85,-146.78 348.36,-142.24"/>
<polygon fill="black" stroke="black" points="349.89,-145.4 356.84,-137.4 346.42,-139.32 349.89,-145.4"/>
<text text-anchor="middle" x="226.75" y="-218.4" font-family="Noto Sans" font-size="14.00">if !counter_0 == 0 &amp; !buf == 0</text>
<text text-anchor="middle" x="226.75" y="-198.9" font-family="Noto Sans" font-size="14.00">buf &#45;= 1</text>
<text text-anchor="middle" x="226.75" y="-179.4" font-family="Noto Sans" font-size="14.00">counter_0 &#45;= 1</text>
</g>
<!-- s2 -->
<g id="node3" class="node">
<title>s2</title>
<polygon fill="none" stroke="black" points="733.5,-178.64 614,-178.64 614,-112.14 733.5,-112.14 733.5,-178.64"/>
<text text-anchor="middle" x="673.75" y="-161.34" font-family="Noto Sans" font-size="14.00">State 2</text>
<text text-anchor="middle" x="673.75" y="-141.84" font-family="Noto Sans" font-size="14.00">Set High</text>
<text text-anchor="middle" x="673.75" y="-122.34" font-family="Noto Sans" font-size="14.00">Output = 1, 0, 0</text>
</g>
<!-- s1&#45;&gt;s2 -->
<g id="edge5" class="edge">
<title>s1&#45;&gt;s2</title>
<path fill="none" stroke="black" d="M487.72,-112.45C493.63,-113.84 499.53,-115.17 505.25,-116.39 536.99,-123.15 572.36,-129.45 602.39,-134.44"/>
<polygon fill="black" stroke="black" points="601.69,-137.88 612.13,-136.05 602.83,-130.97 601.69,-137.88"/>
<text text-anchor="middle" x="550.62" y="-158.37" font-family="Noto Sans" font-size="14.00">if !buf == 0</text>
<text text-anchor="middle" x="550.62" y="-138.87" font-family="Noto Sans" font-size="14.00">counter_1 = 3</text>
</g>
<!-- s3 -->
<g id="node4" class="node">
<title>s3</title>
<polygon fill="none" stroke="black" points="733.5,-88.64 614,-88.64 614,-22.14 733.5,-22.14 733.5,-88.64"/>
<text text-anchor="middle" x="673.75" y="-71.34" font-family="Noto Sans" font-size="14.00">State 3</text>
<text text-anchor="middle" x="673.75" y="-51.84" font-family="Noto Sans" font-size="14.00">Set Low</text>
<text text-anchor="middle" x="673.75" y="-32.34" font-family="Noto Sans" font-size="14.00">Output = 0, 0, 0</text>
</g>
<!-- s1&#45;&gt;s3 -->
<g id="edge4" class="edge">
<title>s1&#45;&gt;s3</title>
<path fill="none" stroke="black" d="M487.29,-80.27C493.36,-79.26 499.41,-78.29 505.25,-77.39 537.12,-72.48 572.52,-67.73 602.53,-63.91"/>
<polygon fill="black" stroke="black" points="602.76,-67.41 612.24,-62.68 601.88,-60.46 602.76,-67.41"/>
<text text-anchor="middle" x="550.62" y="-103.09" font-family="Noto Sans" font-size="14.00">if buf == 0</text>
<text text-anchor="middle" x="550.62" y="-83.59" font-family="Noto Sans" font-size="14.00">counter_1 = 3</text>
</g>
<!-- s2&#45;&gt;s0 -->
<g id="edge6" class="edge">
<title>s2&#45;&gt;s0</title>
<path fill="none" stroke="black" d="M614.22,-178.99C509.4,-234.26 286.19,-329.35 131.5,-235.39 96.84,-214.33 77.72,-171.11 67.7,-137.85"/>
<polygon fill="black" stroke="black" points="71.13,-137.13 65.05,-128.45 64.4,-139.03 71.13,-137.13"/>
</g>
<!-- s3&#45;&gt;s0 -->
<g id="edge7" class="edge">
<title>s3&#45;&gt;s0</title>
<path fill="none" stroke="black" d="M613.64,-38.39C511.66,-12.16 297.64,29.17 131.5,-31.39 118.85,-36 106.87,-43.83 96.38,-52.41"/>
<polygon fill="black" stroke="black" points="94.34,-49.55 89.09,-58.75 98.93,-54.84 94.34,-49.55"/>
</g>
</g>
</svg>
