<?xml version="1.0" encoding="UTF-8" standalone="no"?>
<!DOCTYPE svg PUBLIC "-//W3C//DTD SVG 1.1//EN"
 "http://www.w3.org/Graphics/SVG/1.1/DTD/svg11.dtd">
<!-- Generated by graphviz version 12.2.1 (0)
 -->
<!-- Pages: 1 -->
<svg width="647pt" height="138pt"
 viewBox="0.00 0.00 647.00 137.50" xmlns="http://www.w3.org/2000/svg" xmlns:xlink="http://www.w3.org/1999/xlink">
<g id="graph0" class="graph" transform="scale(1 1) rotate(0) translate(4 133.5)">
<polygon fill="white" stroke="none" points="-4,4 -4,-133.5 643,-133.5 643,4 -4,4"/>
<!-- s0 -->
<g id="node1" class="node">
<title>s0</title>
<polygon fill="none" stroke="black" points="119.5,-47 0,-47 0,0 119.5,0 119.5,-47"/>
<text text-anchor="middle" x="59.75" y="-29.7" font-family="Noto Sans" font-size="14.00">State 0</text>
<text text-anchor="middle" x="59.75" y="-10.2" font-family="Noto Sans" font-size="14.00">Output = 0, 1, 0</text>
</g>
<!-- s0&#45;&gt;s0 -->
<g id="edge2" class="edge">
<title>s0&#45;&gt;s0</title>
<path fill="none" stroke="black" d="M36.04,-47.38C34.7,-56.96 42.6,-65 59.75,-65 69.66,-65 76.49,-62.31 80.22,-58.19"/>
<polygon fill="black" stroke="black" points="83.51,-59.42 83.03,-48.83 76.81,-57.41 83.51,-59.42"/>
<text text-anchor="middle" x="59.75" y="-71.2" font-family="Noto Sans" font-size="14.00">if !in[0]</text>
</g>
<!-- s1 -->
<g id="node2" class="node">
<title>s1</title>
<polygon fill="none" stroke="black" points="374,-92 254.5,-92 254.5,-45 374,-45 374,-92"/>
<text text-anchor="middle" x="314.25" y="-74.7" font-family="Noto Sans" font-size="14.00">State 1</text>
<text text-anchor="middle" x="314.25" y="-55.2" font-family="Noto Sans" font-size="14.00">Output = 0, 1, 0</text>
</g>
<!-- s0&#45;&gt;s1 -->
<g id="edge1" class="edge">
<title>s0&#45;&gt;s1</title>
<path fill="none" stroke="black" d="M119.95,-34.05C156.83,-40.62 204.47,-49.11 243.22,-56.02"/>
<polygon fill="black" stroke="black" points="242.47,-59.44 252.93,-57.75 243.7,-52.55 242.47,-59.44"/>
<text text-anchor="middle" x="187" y="-99.14" font-family="Noto Sans" font-size="14.00">if in[0]</text>
<text text-anchor="middle" x="187" y="-79.64" font-family="Noto Sans" font-size="14.00">buf = data_in</text>
<text text-anchor="middle" x="187" y="-60.14" font-family="Noto Sans" font-size="14.00">counter_0 = 15</text>
</g>
<!-- s1&#45;&gt;s1 -->
<g id="edge4" class="edge">
<title>s1&#45;&gt;s1</title>
<path fill="none" stroke="black" d="M290.54,-92.38C289.2,-101.96 297.1,-110 314.25,-110 324.16,-110 330.99,-107.31 334.72,-103.19"/>
<polygon fill="black" stroke="black" points="338.01,-104.42 337.53,-93.83 331.31,-102.41 338.01,-104.42"/>
<text text-anchor="middle" x="314.25" y="-116.2" font-family="Noto Sans" font-size="14.00">if !in[0]</text>
</g>
<!-- s2 -->
<g id="node3" class="node">
<title>s2</title>
<polygon fill="none" stroke="black" points="639,-47 509,-47 509,0 639,0 639,-47"/>
<text text-anchor="middle" x="574" y="-29.7" font-family="Noto Sans" font-size="14.00">State 2</text>
<text text-anchor="middle" x="574" y="-10.2" font-family="Noto Sans" font-size="14.00">Output = lsb, 0, 1</text>
</g>
<!-- s1&#45;&gt;s2 -->
<g id="edge3" class="edge">
<title>s1&#45;&gt;s2</title>
<path fill="none" stroke="black" d="M374.38,-58.18C410.99,-51.79 458.33,-43.52 497.61,-36.66"/>
<polygon fill="black" stroke="black" points="497.98,-40.15 507.23,-34.98 496.78,-33.25 497.98,-40.15"/>
<text text-anchor="middle" x="441.5" y="-99.14" font-family="Noto Sans" font-size="14.00">if in[0]</text>
<text text-anchor="middle" x="441.5" y="-79.64" font-family="Noto Sans" font-size="14.00">buf = data_in</text>
<text text-anchor="middle" x="441.5" y="-60.14" font-family="Noto Sans" font-size="14.00">counter_0 = 15</text>
</g>
<!-- s2&#45;&gt;s0 -->
<g id="edge5" class="edge">
<title>s2&#45;&gt;s0</title>
<path fill="none" stroke="black" d="M508.93,-20.88C469.94,-19.41 419.1,-17.74 374,-17 320.9,-16.13 307.6,-16.11 254.5,-17 213.48,-17.69 167.6,-19.19 130.79,-20.58"/>
<polygon fill="black" stroke="black" points="131.04,-17.07 121.18,-20.95 131.31,-24.07 131.04,-17.07"/>
<text text-anchor="middle" x="314.25" y="-23.2" font-family="Noto Sans" font-size="14.00">if counter_0 == 0</text>
</g>
<!-- s2&#45;&gt;s2 -->
<g id="edge6" class="edge">
<title>s2&#45;&gt;s2</title>
<path fill="none" stroke="black" d="M549.31,-47.38C547.91,-56.96 556.14,-65 574,-65 584.32,-65 591.43,-62.31 595.32,-58.19"/>
<polygon fill="black" stroke="black" points="598.6,-59.42 598.24,-48.83 591.92,-57.33 598.6,-59.42"/>
<text text-anchor="middle" x="574" y="-110.2" font-family="Noto Sans" font-size="14.00">if !counter_0 == 0</text>
<text text-anchor="middle" x="574" y="-90.7" font-family="Noto Sans" font-size="14.00">buf &gt;&gt;= 1</text>
<text text-anchor="middle" x="574" y="-71.2" font-family="Noto Sans" font-size="14.00">counter_0 &#45;= 1</text>
</g>
</g>
</svg>
