<?xml version="1.0" encoding="UTF-8" standalone="no"?>
<!DOCTYPE svg PUBLIC "-//W3C//DTD SVG 1.1//EN"
 "http://www.w3.org/Graphics/SVG/1.1/DTD/svg11.dtd">
<!-- Generated by graphviz version 12.2.1 (0)
 -->
<!-- Pages: 1 -->
<svg width="773pt" height="138pt"
 viewBox="0.00 0.00 773.00 137.50" xmlns="http://www.w3.org/2000/svg" xmlns:xlink="http://www.w3.org/1999/xlink">
<g id="graph0" class="graph" transform="scale(1 1) rotate(0) translate(4 133.5)">
<polygon fill="white" stroke="none" points="-4,4 -4,-133.5 769,-133.5 769,4 -4,4"/>
<!-- s0 -->
<g id="node1" class="node">
<title>s0</title>
<polygon fill="none" stroke="black" points="119.5,-47 0,-47 0,0 119.5,0 119.5,-47"/>
<text text-anchor="middle" x="59.75" y="-29.7" font-family="Noto Sans" font-size="14.00">State 0</text>
<text text-anchor="middle" x="59.75" y="-10.2" font-family="Noto Sans" font-size="14.00">Output = 0, 1, 0</text>
</g>
<!-- s0&#45;&gt;s0 -->
<g id="edge2" class="edge">
<title>s0&#45;&gt;s0</title>
<path fill="none" stroke="black" d="M30.17,-47.38C28.49,-56.96 38.36,-65 59.75,-65 72.45,-65 81.09,-62.17 85.66,-57.86"/>
<polygon fill="black" stroke="black" points="88.83,-59.41 88.83,-48.81 82.22,-57.09 88.83,-59.41"/>
<text text-anchor="middle" x="59.75" y="-71.2" font-family="Noto Sans" font-size="14.00">if !(in[0])</text>
</g>
<!-- s1 -->
<g id="node2" class="node">
<title>s1</title>
<polygon fill="none" stroke="black" points="437,-92 317.5,-92 317.5,-45 437,-45 437,-92"/>
<text text-anchor="middle" x="377.25" y="-74.7" font-family="Noto Sans" font-size="14.00">State 1</text>
<text text-anchor="middle" x="377.25" y="-55.2" font-family="Noto Sans" font-size="14.00">Output = 0, 1, 0</text>
</g>
<!-- s0&#45;&gt;s1 -->
<g id="edge1" class="edge">
<title>s0&#45;&gt;s1</title>
<path fill="none" stroke="black" d="M119.72,-31.91C172.45,-39.43 249.81,-50.47 305.78,-58.45"/>
<polygon fill="black" stroke="black" points="305.14,-61.89 315.53,-59.84 306.13,-54.96 305.14,-61.89"/>
<text text-anchor="middle" x="218.5" y="-101.63" font-family="Noto Sans" font-size="14.00">if in[0]</text>
<text text-anchor="middle" x="218.5" y="-82.13" font-family="Noto Sans" font-size="14.00">buf = {buf[15:0], data_in}</text>
<text text-anchor="middle" x="218.5" y="-62.63" font-family="Noto Sans" font-size="14.00">counter_0 = 15</text>
</g>
<!-- s1&#45;&gt;s1 -->
<g id="edge4" class="edge">
<title>s1&#45;&gt;s1</title>
<path fill="none" stroke="black" d="M347.67,-92.38C345.99,-101.96 355.86,-110 377.25,-110 389.95,-110 398.59,-107.17 403.16,-102.86"/>
<polygon fill="black" stroke="black" points="406.33,-104.41 406.33,-93.81 399.72,-102.09 406.33,-104.41"/>
<text text-anchor="middle" x="377.25" y="-116.2" font-family="Noto Sans" font-size="14.00">if !(in[0])</text>
</g>
<!-- s2 -->
<g id="node3" class="node">
<title>s2</title>
<polygon fill="none" stroke="black" points="765,-47 635,-47 635,0 765,0 765,-47"/>
<text text-anchor="middle" x="700" y="-29.7" font-family="Noto Sans" font-size="14.00">State 2</text>
<text text-anchor="middle" x="700" y="-10.2" font-family="Noto Sans" font-size="14.00">Output = lsb, 0, 1</text>
</g>
<!-- s1&#45;&gt;s2 -->
<g id="edge3" class="edge">
<title>s1&#45;&gt;s2</title>
<path fill="none" stroke="black" d="M437.45,-60.19C489.89,-52.84 566.72,-42.06 623.55,-34.09"/>
<polygon fill="black" stroke="black" points="623.72,-37.6 633.14,-32.74 622.75,-30.66 623.72,-37.6"/>
<text text-anchor="middle" x="536" y="-102.83" font-family="Noto Sans" font-size="14.00">if in[0]</text>
<text text-anchor="middle" x="536" y="-83.33" font-family="Noto Sans" font-size="14.00">buf = {buf[15:0], data_in}</text>
<text text-anchor="middle" x="536" y="-63.83" font-family="Noto Sans" font-size="14.00">counter_0 = 15</text>
</g>
<!-- s2&#45;&gt;s0 -->
<g id="edge5" class="edge">
<title>s2&#45;&gt;s0</title>
<path fill="none" stroke="black" d="M634.54,-21.24C558.69,-18.84 428.94,-15.59 317.5,-17 254.5,-17.8 182.81,-19.7 131.23,-21.24"/>
<polygon fill="black" stroke="black" points="131.29,-17.73 121.4,-21.53 131.5,-24.73 131.29,-17.73"/>
<text text-anchor="middle" x="377.25" y="-23.2" font-family="Noto Sans" font-size="14.00">if counter_0 == 0</text>
</g>
<!-- s2&#45;&gt;s2 -->
<g id="edge6" class="edge">
<title>s2&#45;&gt;s2</title>
<path fill="none" stroke="black" d="M669.44,-47.38C667.71,-56.96 677.9,-65 700,-65 713.12,-65 722.05,-62.17 726.77,-57.86"/>
<polygon fill="black" stroke="black" points="729.93,-59.4 730.05,-48.81 723.35,-57.02 729.93,-59.4"/>
<text text-anchor="middle" x="700" y="-110.2" font-family="Noto Sans" font-size="14.00">if !(counter_0 == 0)</text>
<text text-anchor="middle" x="700" y="-90.7" font-family="Noto Sans" font-size="14.00">buf &gt;&gt;= 1</text>
<text text-anchor="middle" x="700" y="-71.2" font-family="Noto Sans" font-size="14.00">counter_0 &#45;= 1</text>
</g>
</g>
</svg>
