<?xml version="1.0" encoding="UTF-8" standalone="no"?>
<!DOCTYPE svg PUBLIC "-//W3C//DTD SVG 1.1//EN"
 "http://www.w3.org/Graphics/SVG/1.1/DTD/svg11.dtd">
<!-- Generated by graphviz version 12.2.1 (0)
 -->
<!-- Pages: 1 -->
<svg width="1359pt" height="210pt"
 viewBox="0.00 0.00 1358.50 209.66" xmlns="http://www.w3.org/2000/svg" xmlns:xlink="http://www.w3.org/1999/xlink">
<g id="graph0" class="graph" transform="scale(1 1) rotate(0) translate(4 205.66)">
<polygon fill="white" stroke="none" points="-4,4 -4,-205.66 1354.5,-205.66 1354.5,4 -4,4"/>
<!-- s0 -->
<g id="node1" class="node">
<title>s0</title>
<polygon fill="none" stroke="black" points="147.25,-115 0,-115 0,-29 147.25,-29 147.25,-115"/>
<text text-anchor="middle" x="73.62" y="-97.7" font-family="Noto Sans" font-size="14.00">State 0</text>
<text text-anchor="middle" x="73.62" y="-78.2" font-family="Noto Sans" font-size="14.00">Stop Bit</text>
<text text-anchor="middle" x="73.62" y="-58.7" font-family="Noto Sans" font-size="14.00">Output = 1, 0, 0</text>
<text text-anchor="middle" x="73.62" y="-39.2" font-family="Noto Sans" font-size="14.00">(Wait for counter_1)</text>
</g>
<!-- s1 -->
<g id="node2" class="node">
<title>s1</title>
<polygon fill="none" stroke="black" points="398,-167.25 278.5,-167.25 278.5,-100.75 398,-100.75 398,-167.25"/>
<text text-anchor="middle" x="338.25" y="-149.95" font-family="Noto Sans" font-size="14.00">State 1</text>
<text text-anchor="middle" x="338.25" y="-130.45" font-family="Noto Sans" font-size="14.00">Ready</text>
<text text-anchor="middle" x="338.25" y="-110.95" font-family="Noto Sans" font-size="14.00">Output = 1, 1, 0</text>
</g>
<!-- s0&#45;&gt;s1 -->
<g id="edge1" class="edge">
<title>s0&#45;&gt;s1</title>
<path fill="none" stroke="black" d="M147.67,-106.35C153.54,-108.47 159.45,-110.39 165.25,-112 198.05,-121.13 235.45,-126.49 266.97,-129.62"/>
<polygon fill="black" stroke="black" points="266.51,-133.09 276.79,-130.54 267.16,-126.12 266.51,-133.09"/>
<text text-anchor="middle" x="212.88" y="-134.87" font-family="Noto Sans" font-size="14.00">counter_1 = 3</text>
</g>
<!-- s1&#45;&gt;s0 -->
<g id="edge2" class="edge">
<title>s1&#45;&gt;s0</title>
<path fill="none" stroke="black" d="M307.71,-100.45C294.63,-88.07 278.21,-75.49 260.5,-69 228.65,-57.33 191.62,-55.74 159.03,-57.93"/>
<polygon fill="black" stroke="black" points="158.9,-54.43 149.22,-58.73 159.47,-61.41 158.9,-54.43"/>
<text text-anchor="middle" x="212.88" y="-94.7" font-family="Noto Sans" font-size="14.00">if in[0]</text>
<text text-anchor="middle" x="212.88" y="-75.2" font-family="Noto Sans" font-size="14.00">counter_1 &#45;= 1</text>
</g>
<!-- s2 -->
<g id="node3" class="node">
<title>s2</title>
<polygon fill="none" stroke="black" points="743.25,-190 596,-190 596,-104 743.25,-104 743.25,-190"/>
<text text-anchor="middle" x="669.62" y="-172.7" font-family="Noto Sans" font-size="14.00">State 2</text>
<text text-anchor="middle" x="669.62" y="-153.2" font-family="Noto Sans" font-size="14.00">Wait for Clock</text>
<text text-anchor="middle" x="669.62" y="-133.7" font-family="Noto Sans" font-size="14.00">Output = 1, 0, 0</text>
<text text-anchor="middle" x="669.62" y="-114.2" font-family="Noto Sans" font-size="14.00">(Wait for counter_1)</text>
</g>
<!-- s1&#45;&gt;s2 -->
<g id="edge3" class="edge">
<title>s1&#45;&gt;s2</title>
<path fill="none" stroke="black" d="M398.14,-136.32C449.92,-138.37 525.9,-141.37 584.16,-143.67"/>
<polygon fill="black" stroke="black" points="583.92,-147.16 594.05,-144.06 584.2,-140.16 583.92,-147.16"/>
<text text-anchor="middle" x="497" y="-188.36" font-family="Noto Sans" font-size="14.00">if !in[0]</text>
<text text-anchor="middle" x="497" y="-168.86" font-family="Noto Sans" font-size="14.00">buf = {buf[15:0], data_in}</text>
<text text-anchor="middle" x="497" y="-149.36" font-family="Noto Sans" font-size="14.00">counter_1 &#45;= 1</text>
</g>
<!-- s3 -->
<g id="node4" class="node">
<title>s3</title>
<polygon fill="none" stroke="black" points="1060,-165 870,-165 870,-79 1060,-79 1060,-165"/>
<text text-anchor="middle" x="965" y="-147.7" font-family="Noto Sans" font-size="14.00">State 3</text>
<text text-anchor="middle" x="965" y="-128.2" font-family="Noto Sans" font-size="14.00">Start Bit &amp; Compute Parity</text>
<text text-anchor="middle" x="965" y="-108.7" font-family="Noto Sans" font-size="14.00">Output = 0, 0, 0</text>
<text text-anchor="middle" x="965" y="-89.2" font-family="Noto Sans" font-size="14.00">(Wait for counter_1)</text>
</g>
<!-- s2&#45;&gt;s3 -->
<g id="edge4" class="edge">
<title>s2&#45;&gt;s3</title>
<path fill="none" stroke="black" d="M743.52,-140.79C778.2,-137.83 820.31,-134.24 858.4,-131"/>
<polygon fill="black" stroke="black" points="858.38,-134.51 868.05,-130.18 857.79,-127.54 858.38,-134.51"/>
<text text-anchor="middle" x="806.62" y="-145.11" font-family="Noto Sans" font-size="14.00">counter_1 = 3</text>
</g>
<!-- s4 -->
<g id="node5" class="node">
<title>s4</title>
<polygon fill="none" stroke="black" points="1350.5,-86 1203.25,-86 1203.25,0 1350.5,0 1350.5,-86"/>
<text text-anchor="middle" x="1276.88" y="-68.7" font-family="Noto Sans" font-size="14.00">State 4</text>
<text text-anchor="middle" x="1276.88" y="-49.2" font-family="Noto Sans" font-size="14.00">Send</text>
<text text-anchor="middle" x="1276.88" y="-29.7" font-family="Noto Sans" font-size="14.00">Output = lsb, 0, 0</text>
<text text-anchor="middle" x="1276.88" y="-10.2" font-family="Noto Sans" font-size="14.00">(Wait for counter_1)</text>
</g>
<!-- s3&#45;&gt;s4 -->
<g id="edge5" class="edge">
<title>s3&#45;&gt;s4</title>
<path fill="none" stroke="black" d="M1060.23,-97.98C1102.32,-87.25 1151.49,-74.71 1192.25,-64.32"/>
<polygon fill="black" stroke="black" points="1192.94,-67.75 1201.77,-61.89 1191.22,-60.97 1192.94,-67.75"/>
<text text-anchor="middle" x="1131.62" y="-137.1" font-family="Noto Sans" font-size="14.00">buf = parity(buf)</text>
<text text-anchor="middle" x="1131.62" y="-117.6" font-family="Noto Sans" font-size="14.00">counter_0 = 8</text>
<text text-anchor="middle" x="1131.62" y="-98.1" font-family="Noto Sans" font-size="14.00">counter_1 = 3</text>
</g>
<!-- s4&#45;&gt;s0 -->
<g id="edge6" class="edge">
<title>s4&#45;&gt;s0</title>
<path fill="none" stroke="black" d="M1202.99,-37.11C1140.23,-32.55 1047.21,-27 966,-27 337.25,-27 337.25,-27 337.25,-27 276.91,-27 209.89,-38.68 158.65,-50.14"/>
<polygon fill="black" stroke="black" points="158.08,-46.68 149.11,-52.32 159.64,-53.5 158.08,-46.68"/>
<text text-anchor="middle" x="669.62" y="-72.2" font-family="Noto Sans" font-size="14.00">if counter_0 == 0</text>
<text text-anchor="middle" x="669.62" y="-52.7" font-family="Noto Sans" font-size="14.00">counter_0 = 8</text>
<text text-anchor="middle" x="669.62" y="-33.2" font-family="Noto Sans" font-size="14.00">counter_1 = 3</text>
</g>
<!-- s4&#45;&gt;s4 -->
<g id="edge7" class="edge">
<title>s4&#45;&gt;s4</title>
<path fill="none" stroke="black" d="M1250.18,-86.31C1252.37,-96.49 1261.27,-104 1276.88,-104 1286.63,-104 1293.76,-101.07 1298.27,-96.38"/>
<polygon fill="black" stroke="black" points="1301.31,-98.13 1302.87,-87.65 1295.11,-94.87 1301.31,-98.13"/>
<text text-anchor="middle" x="1276.88" y="-168.7" font-family="Noto Sans" font-size="14.00">if !counter_0 == 0</text>
<text text-anchor="middle" x="1276.88" y="-149.2" font-family="Noto Sans" font-size="14.00">buf &gt;&gt;= 1</text>
<text text-anchor="middle" x="1276.88" y="-129.7" font-family="Noto Sans" font-size="14.00">counter_0 &#45;= 1</text>
<text text-anchor="middle" x="1276.88" y="-110.2" font-family="Noto Sans" font-size="14.00">counter_1 = 3</text>
</g>
</g>
</svg>
